# xmcd
#
# Track frame offsets:
#	150
#	19345
#	31425
#	50515
#	63285
#	83022
#	98392
#	116870
#	138050
#	161362
#	179742
#	194295
#
# Disc length: 2734 seconds
#
# Revision: 1
# Processed by: cddbd v1.4b42PL1 Copyright (c) Steve Scherf et al.
# Submitted via: audiograbber 1.80
#
DISCID=980aac0c
DTITLE=Lonnie Dale´s Road Band - live
DYEAR=1900
DGENRE=
TTITLE0=copperhaed road
TTITLE1=songs of the sounds
TTITLE2=auctioneer song
TTITLE3=beim festival in geiselwind
TTITLE4=margarita ville
TTITLE5=drivin´ my life away
TTITLE6=friends in low places
TTITLE7=family tradition
TTITLE8=kawliga
TTITLE9=redneck girl
TTITLE10=god bless the usa
TTITLE11=froggy mountain breakdown
EXTD=
EXTT0=
EXTT1=
EXTT2=
EXTT3=
EXTT4=
EXTT5=
EXTT6=
EXTT7=
EXTT8=
EXTT9=
EXTT10=
EXTT11=
PLAYORDER=
